<?xml version="1.0" encoding="utf-8"?>
<!-- Generator: Adobe Illustrator 26.5.0, SVG Export Plug-In . SVG Version: 6.00 Build 0)  -->
<svg version="1.1" id="Layer_1" xmlns="http://www.w3.org/2000/svg" xmlns:xlink="http://www.w3.org/1999/xlink" x="0px" y="0px"
	 viewBox="0 0 841.89 595.28" style="enable-background:new 0 0 841.89 595.28;" xml:space="preserve">
<style type="text/css">
	.st0{fill:#818E38;}
	.st1{fill:#8E8733;}
	.st2{fill:#6E6F6F;}
</style>
<g>
	<g>
		<path class="st0" d="M99.66,208.54l33.27-5.36v34.61h39.97v27.69h-39.97v41.31c0,7,1.23,12.58,3.68,16.75
			c2.46,4.17,7.4,6.25,14.85,6.25c3.57,0,7.26-0.34,11.05-1.01c3.8-0.67,7.26-1.6,10.38-2.79l4.69,25.91
			c-4.02,1.64-8.49,3.05-13.4,4.24c-4.91,1.19-10.94,1.79-18.09,1.79c-9.08,0-16.6-1.23-22.55-3.69
			c-5.96-2.46-10.72-5.88-14.29-10.27c-3.57-4.39-6.07-9.71-7.48-15.97c-1.42-6.25-2.12-13.18-2.12-20.77V208.54z"/>
		<path class="st0" d="M186.53,355.26V187.32l33.27-5.36v56.28c2.23-0.74,5.1-1.45,8.6-2.12c3.5-0.67,6.88-1.01,10.16-1.01
			c9.53,0,17.45,1.3,23.78,3.91c6.33,2.61,11.39,6.29,15.19,11.05c3.8,4.77,6.48,10.42,8.04,16.97c1.56,6.55,2.34,13.84,2.34,21.89
			v66.32h-33.27v-62.31c0-10.72-1.38-18.31-4.13-22.78c-2.76-4.47-7.85-6.7-15.3-6.7c-2.98,0-5.77,0.26-8.37,0.78
			c-2.61,0.52-4.95,1.08-7.03,1.68v89.33H186.53z"/>
		<path class="st0" d="M423.53,296.52c0-8.49,1.37-16.49,4.13-24.01c2.75-7.52,6.73-14.07,11.95-19.65
			c5.21-5.58,11.54-10.01,18.98-13.29c7.44-3.27,15.93-4.91,25.46-4.91c6.25,0,11.98,0.56,17.2,1.68c5.21,1.12,10.27,2.72,15.19,4.8
			l-6.92,26.57c-3.13-1.19-6.55-2.23-10.27-3.13c-3.72-0.89-7.89-1.34-12.51-1.34c-9.83,0-17.16,3.05-22,9.16
			c-4.84,6.11-7.26,14.14-7.26,24.12c0,10.57,2.27,18.76,6.81,24.56c4.54,5.81,12.47,8.71,23.78,8.71c4.02,0,8.34-0.37,12.95-1.12
			c4.61-0.74,8.86-1.93,12.73-3.57l4.69,27.24c-3.87,1.64-8.71,3.05-14.52,4.24c-5.81,1.19-12.21,1.79-19.2,1.79
			c-10.72,0-19.95-1.6-27.69-4.8c-7.74-3.2-14.11-7.55-19.09-13.06c-4.99-5.51-8.64-12.02-10.94-19.54
			C424.69,313.46,423.53,305.31,423.53,296.52z"/>
		<path class="st0" d="M527.38,355.26V187.32l33.27-5.36v56.28c2.23-0.74,5.1-1.45,8.6-2.12c3.5-0.67,6.88-1.01,10.16-1.01
			c9.53,0,17.45,1.3,23.78,3.91c6.33,2.61,11.39,6.29,15.19,11.05c3.8,4.77,6.48,10.42,8.04,16.97c1.56,6.55,2.35,13.84,2.35,21.89
			v66.32h-33.27v-62.31c0-10.72-1.38-18.31-4.13-22.78c-2.76-4.47-7.85-6.7-15.3-6.7c-2.98,0-5.77,0.26-8.37,0.78
			c-2.61,0.52-4.95,1.08-7.04,1.68v89.33H527.38z"/>
		<path class="st0" d="M687.72,234.66c9.83,0,18.01,1.12,24.57,3.35c6.55,2.23,11.8,5.44,15.74,9.6c3.94,4.17,6.74,9.23,8.37,15.19
			c1.64,5.96,2.46,12.58,2.46,19.88v69.23c-4.77,1.04-11.39,2.27-19.88,3.69c-8.49,1.41-18.76,2.12-30.82,2.12
			c-7.59,0-14.48-0.67-20.66-2.01c-6.18-1.34-11.5-3.53-15.97-6.59c-4.47-3.05-7.89-7.04-10.27-11.95
			c-2.38-4.91-3.57-10.94-3.57-18.09c0-6.85,1.37-12.65,4.13-17.42c2.75-4.76,6.44-8.56,11.06-11.39c4.61-2.83,9.9-4.87,15.85-6.14
			c5.95-1.26,12.13-1.9,18.54-1.9c4.32,0,8.15,0.19,11.5,0.56c3.35,0.37,6.06,0.86,8.15,1.45v-3.13c0-5.66-1.71-10.2-5.14-13.62
			c-3.43-3.42-9.38-5.14-17.86-5.14c-5.66,0-11.24,0.41-16.75,1.23c-5.51,0.82-10.27,1.97-14.29,3.46l-4.24-26.8
			c1.93-0.59,4.35-1.23,7.26-1.9c2.9-0.67,6.06-1.26,9.49-1.79c3.42-0.52,7.04-0.97,10.83-1.34
			C680.01,234.85,683.84,234.66,687.72,234.66z M690.4,332.03c3.27,0,6.4-0.07,9.38-0.22c2.98-0.15,5.36-0.37,7.15-0.67V305.9
			c-1.34-0.3-3.35-0.59-6.03-0.89c-2.68-0.3-5.14-0.45-7.37-0.45c-3.13,0-6.07,0.19-8.82,0.56c-2.76,0.37-5.17,1.08-7.26,2.12
			c-2.09,1.04-3.72,2.46-4.91,4.24c-1.19,1.79-1.79,4.02-1.79,6.7c0,5.21,1.75,8.82,5.25,10.83
			C679.49,331.03,684.29,332.03,690.4,332.03z"/>
	</g>
	<g>
		<path class="st1" d="M417.78,282.6c-2.32,12.58-8.39,23.32-17.42,32.38c-2.44,2.44-4.64,5.06-6.54,7.95
			c-6.17,9.38-8.45,19.79-7.95,30.89c0.09,1.78-0.4,2.33-2.25,2.29c-8.67-0.09-17.38-0.04-26.08-0.04c-8.51,0-17.04-0.08-25.55,0.07
			c-2.27,0.03-3.14-0.42-3-2.9c0.4-6.83-0.43-13.52-2.66-20.06c-2.9-8.45-8.68-14.81-14.48-21.33
			c-13.97-15.71-18.84-34.13-14.23-54.58c0.25-1.08,0.51-2.15,0.82-3.2c4.12,1.24,8.01,3.07,11.64,5.53
			c6.05,4.12,9.83,10.08,13.7,16.08c9.37,14.44,22.85,22.31,40.01,23.1c27.69,1.29,50.27-19.66,52.39-46
			c0.4,1.27,0.74,2.56,1.04,3.85C419.15,264.86,419.43,273.66,417.78,282.6z"/>
		<path class="st1" d="M357.2,365.37c-7.06,0-14.12,0.05-21.18-0.04c-1.72-0.02-2.41,0.31-2.33,2.21c0.16,3.7,0.01,7.4,0.06,11.11
			c0.05,3.67,1.84,5.69,5.5,5.72c12.14,0.09,24.28,0.09,36.43,0c3.66-0.03,5.45-2.04,5.5-5.72c0.05-3.79-0.08-7.58,0.06-11.37
			c0.06-1.7-0.58-1.96-2.07-1.95C371.84,365.41,364.52,365.37,357.2,365.37z"/>
		<path class="st1" d="M344.21,393.89c2.27,5.88,7.33,9.32,13.39,9.29c5.88-0.03,10.9-3.53,13.11-9.29
			C361.88,393.89,353.14,393.89,344.21,393.89z"/>
	</g>
	<g>
		<path class="st2" d="M554.85,402.77c-4.98,0-8.77-1.38-11.38-4.16c-2.61-2.77-3.91-6.7-3.91-11.8c0-2.53,0.4-4.8,1.19-6.79
			c0.8-1.99,1.89-3.67,3.27-5.04c1.38-1.37,3.03-2.41,4.95-3.12c1.92-0.71,3.99-1.06,6.23-1.06c1.3,0,2.48,0.1,3.54,0.29
			c1.06,0.19,1.99,0.41,2.79,0.66s1.46,0.51,1.99,0.77c0.53,0.26,0.91,0.47,1.15,0.62l-1.99,5.57c-0.94-0.5-2.04-0.93-3.29-1.28
			c-1.25-0.35-2.67-0.53-4.27-0.53c-1.06,0-2.1,0.18-3.12,0.53s-1.92,0.92-2.7,1.7c-0.78,0.78-1.41,1.79-1.88,3.03
			c-0.47,1.24-0.71,2.74-0.71,4.51c0,1.41,0.15,2.73,0.46,3.96s0.81,2.28,1.5,3.16c0.69,0.88,1.6,1.58,2.72,2.1
			c1.12,0.52,2.47,0.77,4.07,0.77c1,0,1.9-0.06,2.7-0.18c0.8-0.12,1.5-0.26,2.12-0.42c0.62-0.16,1.16-0.35,1.63-0.55
			s0.9-0.4,1.28-0.58l1.9,5.53c-0.97,0.59-2.34,1.12-4.11,1.59C559.23,402.53,557.18,402.77,554.85,402.77z"/>
		<path class="st2" d="M583.1,384.73c-0.59-0.15-1.28-0.3-2.08-0.46c-0.79-0.16-1.65-0.24-2.56-0.24c-0.41,0-0.91,0.04-1.48,0.11
			c-0.58,0.07-1.01,0.16-1.3,0.24v17.77h-6.59v-22.01c1.18-0.41,2.57-0.8,4.18-1.17c1.61-0.37,3.4-0.55,5.37-0.55
			c0.35,0,0.78,0.02,1.28,0.07c0.5,0.04,1,0.1,1.5,0.18c0.5,0.07,1,0.16,1.5,0.26c0.5,0.1,0.93,0.23,1.28,0.38L583.1,384.73z"/>
		<path class="st2" d="M586.63,390.7c0-2.06,0.32-3.87,0.95-5.42s1.47-2.84,2.5-3.87s2.22-1.81,3.56-2.34
			c1.34-0.53,2.72-0.8,4.13-0.8c3.3,0,5.91,1.01,7.82,3.03c1.92,2.02,2.87,4.99,2.87,8.91c0,0.38-0.02,0.8-0.04,1.26
			c-0.03,0.46-0.06,0.86-0.09,1.22H593.4c0.15,1.36,0.78,2.43,1.9,3.23s2.62,1.19,4.51,1.19c1.21,0,2.39-0.11,3.56-0.33
			c1.16-0.22,2.11-0.49,2.85-0.82l0.88,5.35c-0.35,0.18-0.83,0.35-1.42,0.53s-1.25,0.33-1.97,0.46c-0.72,0.13-1.5,0.24-2.32,0.33
			c-0.83,0.09-1.65,0.13-2.48,0.13c-2.09,0-3.91-0.31-5.46-0.93s-2.83-1.47-3.85-2.54c-1.02-1.08-1.77-2.35-2.25-3.82
			C586.88,394,586.63,392.41,586.63,390.7z M602.11,388.18c-0.03-0.56-0.13-1.11-0.29-1.64c-0.16-0.53-0.41-1-0.75-1.41
			s-0.77-0.75-1.28-1.02c-0.52-0.27-1.16-0.4-1.92-0.4c-0.74,0-1.37,0.13-1.9,0.38c-0.53,0.25-0.97,0.58-1.33,0.99
			c-0.35,0.41-0.63,0.89-0.82,1.44c-0.19,0.55-0.33,1.1-0.42,1.66H602.11z"/>
		<path class="st2" d="M621.91,378.28c1.95,0,3.57,0.22,4.86,0.66c1.3,0.44,2.33,1.08,3.12,1.9c0.78,0.83,1.33,1.83,1.66,3.01
			c0.32,1.18,0.49,2.49,0.49,3.93v13.7c-0.94,0.21-2.25,0.45-3.93,0.73c-1.68,0.28-3.71,0.42-6.1,0.42c-1.5,0-2.87-0.13-4.09-0.4
			c-1.22-0.27-2.28-0.7-3.16-1.3c-0.88-0.6-1.56-1.39-2.03-2.36c-0.47-0.97-0.71-2.17-0.71-3.58c0-1.35,0.27-2.5,0.82-3.45
			c0.54-0.94,1.27-1.69,2.19-2.25c0.91-0.56,1.96-0.96,3.14-1.21c1.18-0.25,2.4-0.38,3.67-0.38c0.85,0,1.61,0.04,2.28,0.11
			c0.66,0.07,1.2,0.17,1.61,0.29v-0.62c0-1.12-0.34-2.02-1.02-2.7c-0.68-0.68-1.86-1.02-3.54-1.02c-1.12,0-2.23,0.08-3.32,0.24
			c-1.09,0.16-2.03,0.39-2.83,0.69l-0.84-5.3c0.38-0.12,0.86-0.24,1.44-0.38c0.58-0.13,1.2-0.25,1.88-0.35
			c0.68-0.1,1.39-0.19,2.14-0.27C620.38,378.32,621.14,378.28,621.91,378.28z M622.44,397.55c0.65,0,1.27-0.01,1.86-0.04
			c0.59-0.03,1.06-0.07,1.42-0.13v-5c-0.27-0.06-0.66-0.12-1.19-0.18c-0.53-0.06-1.02-0.09-1.46-0.09c-0.62,0-1.2,0.04-1.75,0.11
			c-0.55,0.07-1.02,0.21-1.44,0.42c-0.41,0.21-0.74,0.49-0.97,0.84c-0.24,0.35-0.35,0.8-0.35,1.33c0,1.03,0.35,1.75,1.04,2.14
			C620.28,397.35,621.23,397.55,622.44,397.55z"/>
		<path class="st2" d="M637.78,373.11l6.59-1.06v6.85h7.91v5.48h-7.91v8.18c0,1.39,0.24,2.49,0.73,3.32s1.47,1.24,2.94,1.24
			c0.71,0,1.44-0.07,2.19-0.2c0.75-0.13,1.44-0.32,2.05-0.55l0.93,5.13c-0.8,0.32-1.68,0.6-2.65,0.84s-2.17,0.35-3.58,0.35
			c-1.8,0-3.29-0.24-4.46-0.73s-2.12-1.16-2.83-2.03c-0.71-0.87-1.2-1.92-1.48-3.16s-0.42-2.61-0.42-4.11V373.11z"/>
		<path class="st2" d="M664.83,372.18c0,1.21-0.39,2.16-1.17,2.85c-0.78,0.69-1.7,1.04-2.76,1.04s-1.98-0.35-2.76-1.04
			c-0.78-0.69-1.17-1.64-1.17-2.85s0.39-2.16,1.17-2.85c0.78-0.69,1.7-1.04,2.76-1.04s1.98,0.35,2.76,1.04
			C664.44,370.02,664.83,370.97,664.83,372.18z M664.21,402.15h-6.59V378.9h6.59V402.15z"/>
		<path class="st2" d="M676.75,402.15c-1.51-2.95-3.04-6.39-4.59-10.34c-1.55-3.95-3.02-8.25-4.41-12.91h6.98
			c0.3,1.15,0.64,2.39,1.04,3.73c0.4,1.34,0.81,2.7,1.24,4.07c0.43,1.37,0.86,2.7,1.29,4s0.85,2.48,1.27,3.54
			c0.38-1.06,0.8-2.24,1.24-3.54s0.88-2.63,1.31-4c0.43-1.37,0.84-2.73,1.24-4.07c0.4-1.34,0.75-2.59,1.04-3.73h6.81
			c-1.39,4.66-2.86,8.96-4.41,12.91c-1.55,3.95-3.08,7.4-4.59,10.34H676.75z"/>
		<path class="st2" d="M693.6,390.7c0-2.06,0.32-3.87,0.95-5.42s1.47-2.84,2.5-3.87s2.22-1.81,3.56-2.34
			c1.34-0.53,2.72-0.8,4.13-0.8c3.3,0,5.91,1.01,7.82,3.03c1.92,2.02,2.87,4.99,2.87,8.91c0,0.38-0.02,0.8-0.04,1.26
			c-0.03,0.46-0.06,0.86-0.09,1.22h-14.94c0.15,1.36,0.78,2.43,1.9,3.23s2.62,1.19,4.51,1.19c1.21,0,2.39-0.11,3.56-0.33
			c1.16-0.22,2.11-0.49,2.85-0.82l0.88,5.35c-0.35,0.18-0.83,0.35-1.42,0.53s-1.25,0.33-1.97,0.46c-0.72,0.13-1.5,0.24-2.32,0.33
			c-0.83,0.09-1.65,0.13-2.48,0.13c-2.09,0-3.91-0.31-5.46-0.93s-2.83-1.47-3.85-2.54c-1.02-1.08-1.77-2.35-2.25-3.82
			C693.85,394,693.6,392.41,693.6,390.7z M709.08,388.18c-0.03-0.56-0.13-1.11-0.29-1.64c-0.16-0.53-0.41-1-0.75-1.41
			s-0.77-0.75-1.28-1.02c-0.52-0.27-1.16-0.4-1.92-0.4c-0.74,0-1.37,0.13-1.9,0.38c-0.53,0.25-0.97,0.58-1.33,0.99
			c-0.35,0.41-0.63,0.89-0.82,1.44c-0.19,0.55-0.33,1.1-0.42,1.66H709.08z"/>
		<path class="st2" d="M727.2,397.42c1.21,0,2.06-0.12,2.56-0.35c0.5-0.24,0.75-0.69,0.75-1.37c0-0.53-0.32-1-0.97-1.39
			c-0.65-0.4-1.64-0.85-2.96-1.35c-1.03-0.38-1.97-0.78-2.81-1.19c-0.84-0.41-1.55-0.91-2.14-1.48c-0.59-0.58-1.05-1.26-1.37-2.06
			c-0.33-0.8-0.49-1.75-0.49-2.87c0-2.18,0.81-3.9,2.43-5.17c1.62-1.27,3.85-1.9,6.67-1.9c1.42,0,2.77,0.13,4.07,0.38
			s2.33,0.52,3.09,0.82l-1.15,5.13c-0.77-0.27-1.6-0.5-2.5-0.71c-0.9-0.21-1.91-0.31-3.03-0.31c-2.06,0-3.09,0.58-3.09,1.72
			c0,0.26,0.04,0.5,0.13,0.71c0.09,0.21,0.27,0.41,0.53,0.6c0.26,0.19,0.62,0.4,1.08,0.62c0.46,0.22,1.04,0.47,1.75,0.73
			c1.44,0.54,2.64,1.06,3.58,1.58c0.94,0.52,1.69,1.08,2.23,1.68c0.54,0.6,0.93,1.27,1.15,2.01c0.22,0.73,0.33,1.59,0.33,2.56
			c0,2.29-0.86,4.03-2.59,5.2s-4.16,1.76-7.32,1.76c-2.06,0-3.78-0.18-5.15-0.53c-1.37-0.35-2.32-0.65-2.85-0.88l1.11-5.35
			c1.12,0.44,2.27,0.79,3.45,1.04C724.88,397.29,726.05,397.42,727.2,397.42z"/>
	</g>
	<circle class="st1" cx="364.46" cy="242.63" r="32.73"/>
</g>
</svg>
