<?xml version="1.0" encoding="utf-8"?>
<!-- Generator: Adobe Illustrator 26.5.0, SVG Export Plug-In . SVG Version: 6.00 Build 0)  -->
<svg version="1.1" id="Layer_1" xmlns="http://www.w3.org/2000/svg" xmlns:xlink="http://www.w3.org/1999/xlink" x="0px" y="0px"
	 viewBox="0 0 841.9 595.3" style="enable-background:new 0 0 841.9 595.3;" xml:space="preserve">
<style type="text/css">
	.st0{fill:#FFFFFF;}
</style>
<g>
	<g>
		<path class="st0" d="M99.7,208.5l33.3-5.4v34.6h40v27.7h-40v41.3c0,7,1.2,12.6,3.7,16.8c2.5,4.2,7.4,6.2,14.9,6.2
			c3.6,0,7.3-0.3,11.1-1c3.8-0.7,7.3-1.6,10.4-2.8l4.7,25.9c-4,1.6-8.5,3-13.4,4.2c-4.9,1.2-10.9,1.8-18.1,1.8
			c-9.1,0-16.6-1.2-22.6-3.7c-6-2.5-10.7-5.9-14.3-10.3c-3.6-4.4-6.1-9.7-7.5-16c-1.4-6.2-2.1-13.2-2.1-20.8L99.7,208.5L99.7,208.5z
			"/>
		<path class="st0" d="M186.5,355.3V187.3l33.3-5.4v56.3c2.2-0.7,5.1-1.4,8.6-2.1s6.9-1,10.2-1c9.5,0,17.4,1.3,23.8,3.9
			c6.3,2.6,11.4,6.3,15.2,11.1c3.8,4.8,6.5,10.4,8,17s2.3,13.8,2.3,21.9v66.3h-33.3v-62.3c0-10.7-1.4-18.3-4.1-22.8
			c-2.8-4.5-7.9-6.7-15.3-6.7c-3,0-5.8,0.3-8.4,0.8c-2.6,0.5-4.9,1.1-7,1.7v89.3L186.5,355.3L186.5,355.3z"/>
		<path class="st0" d="M423.5,296.5c0-8.5,1.4-16.5,4.1-24c2.8-7.5,6.7-14.1,12-19.6c5.2-5.6,11.5-10,19-13.3
			c7.4-3.3,15.9-4.9,25.5-4.9c6.2,0,12,0.6,17.2,1.7c5.2,1.1,10.3,2.7,15.2,4.8l-6.9,26.6c-3.1-1.2-6.5-2.2-10.3-3.1
			c-3.7-0.9-7.9-1.3-12.5-1.3c-9.8,0-17.2,3-22,9.2c-4.8,6.1-7.3,14.1-7.3,24.1c0,10.6,2.3,18.8,6.8,24.6c4.5,5.8,12.5,8.7,23.8,8.7
			c4,0,8.3-0.4,13-1.1c4.6-0.7,8.9-1.9,12.7-3.6l4.7,27.2c-3.9,1.6-8.7,3-14.5,4.2s-12.2,1.8-19.2,1.8c-10.7,0-20-1.6-27.7-4.8
			c-7.7-3.2-14.1-7.5-19.1-13.1c-5-5.5-8.6-12-10.9-19.5C424.7,313.5,423.5,305.3,423.5,296.5z"/>
		<path class="st0" d="M527.4,355.3V187.3l33.3-5.4v56.3c2.2-0.7,5.1-1.4,8.6-2.1s6.9-1,10.2-1c9.5,0,17.5,1.3,23.8,3.9
			s11.4,6.3,15.2,11.1c3.8,4.8,6.5,10.4,8,17s2.3,13.8,2.3,21.9v66.3h-33.3v-62.3c0-10.7-1.4-18.3-4.1-22.8
			c-2.8-4.5-7.8-6.7-15.3-6.7c-3,0-5.8,0.3-8.4,0.8c-2.6,0.5-5,1.1-7,1.7v89.3L527.4,355.3L527.4,355.3z"/>
		<path class="st0" d="M687.7,234.7c9.8,0,18,1.1,24.6,3.4c6.5,2.2,11.8,5.4,15.7,9.6c3.9,4.2,6.7,9.2,8.4,15.2
			c1.6,6,2.5,12.6,2.5,19.9v69.2c-4.8,1-11.4,2.3-19.9,3.7c-8.5,1.4-18.8,2.1-30.8,2.1c-7.6,0-14.5-0.7-20.7-2s-11.5-3.5-16-6.6
			c-4.5-3-7.9-7-10.3-12s-3.6-10.9-3.6-18.1c0-6.9,1.4-12.6,4.1-17.4c2.8-4.8,6.4-8.6,11.1-11.4c4.6-2.8,9.9-4.9,15.8-6.1
			c6-1.3,12.1-1.9,18.5-1.9c4.3,0,8.2,0.2,11.5,0.6s6.1,0.9,8.2,1.5v-3.1c0-5.7-1.7-10.2-5.1-13.6c-3.4-3.4-9.4-5.1-17.9-5.1
			c-5.7,0-11.2,0.4-16.8,1.2s-10.3,2-14.3,3.5l-4.2-26.8c1.9-0.6,4.3-1.2,7.3-1.9c2.9-0.7,6.1-1.3,9.5-1.8c3.4-0.5,7-1,10.8-1.3
			C680,234.9,683.8,234.7,687.7,234.7z M690.4,332c3.3,0,6.4-0.1,9.4-0.2s5.4-0.4,7.2-0.7v-25.2c-1.3-0.3-3.3-0.6-6-0.9
			c-2.7-0.3-5.1-0.5-7.4-0.5c-3.1,0-6.1,0.2-8.8,0.6c-2.8,0.4-5.2,1.1-7.3,2.1s-3.7,2.5-4.9,4.2c-1.2,1.8-1.8,4-1.8,6.7
			c0,5.2,1.8,8.8,5.2,10.8C679.5,331,684.3,332,690.4,332z"/>
	</g>
	<g>
		<path class="st0" d="M417.8,282.6c-2.3,12.6-8.4,23.3-17.4,32.4c-2.4,2.4-4.6,5.1-6.5,8c-6.2,9.4-8.5,19.8-8,30.9
			c0.1,1.8-0.4,2.3-2.2,2.3c-8.7-0.1-17.4,0-26.1,0c-8.5,0-17-0.1-25.5,0.1c-2.3,0-3.1-0.4-3-2.9c0.4-6.8-0.4-13.5-2.7-20.1
			c-2.9-8.5-8.7-14.8-14.5-21.3c-14-15.7-18.8-34.1-14.2-54.6c0.2-1.1,0.5-2.1,0.8-3.2c4.1,1.2,8,3.1,11.6,5.5
			c6,4.1,9.8,10.1,13.7,16.1c9.4,14.4,22.9,22.3,40,23.1c27.7,1.3,50.3-19.7,52.4-46c0.4,1.3,0.7,2.6,1,3.9
			C419.1,264.9,419.4,273.7,417.8,282.6z"/>
		<path class="st0" d="M357.2,365.4c-7.1,0-14.1,0-21.2,0c-1.7,0-2.4,0.3-2.3,2.2c0.2,3.7,0,7.4,0.1,11.1c0,3.7,1.8,5.7,5.5,5.7
			c12.1,0.1,24.3,0.1,36.4,0c3.7,0,5.5-2,5.5-5.7c0-3.8-0.1-7.6,0.1-11.4c0.1-1.7-0.6-2-2.1-2C371.8,365.4,364.5,365.4,357.2,365.4z
			"/>
		<path class="st0" d="M344.2,393.9c2.3,5.9,7.3,9.3,13.4,9.3c5.9,0,10.9-3.5,13.1-9.3C361.9,393.9,353.1,393.9,344.2,393.9z"/>
	</g>
	<g>
		<path class="st0" d="M554.8,402.8c-5,0-8.8-1.4-11.4-4.2c-2.6-2.8-3.9-6.7-3.9-11.8c0-2.5,0.4-4.8,1.2-6.8c0.8-2,1.9-3.7,3.3-5
			s3-2.4,5-3.1s4-1.1,6.2-1.1c1.3,0,2.5,0.1,3.5,0.3s2,0.4,2.8,0.7s1.5,0.5,2,0.8c0.5,0.3,0.9,0.5,1.2,0.6l-2,5.6
			c-0.9-0.5-2-0.9-3.3-1.3s-2.7-0.5-4.3-0.5c-1.1,0-2.1,0.2-3.1,0.5s-1.9,0.9-2.7,1.7s-1.4,1.8-1.9,3c-0.5,1.2-0.7,2.7-0.7,4.5
			c0,1.4,0.2,2.7,0.5,4s0.8,2.3,1.5,3.2s1.6,1.6,2.7,2.1c1.1,0.5,2.5,0.8,4.1,0.8c1,0,1.9-0.1,2.7-0.2s1.5-0.3,2.1-0.4
			s1.2-0.4,1.6-0.5s0.9-0.4,1.3-0.6l1.9,5.5c-1,0.6-2.3,1.1-4.1,1.6C559.2,402.5,557.2,402.8,554.8,402.8z"/>
		<path class="st0" d="M583.1,384.7c-0.6-0.1-1.3-0.3-2.1-0.5c-0.8-0.2-1.7-0.2-2.6-0.2c-0.4,0-0.9,0-1.5,0.1
			c-0.6,0.1-1,0.2-1.3,0.2v17.8h-6.6v-22c1.2-0.4,2.6-0.8,4.2-1.2c1.6-0.4,3.4-0.5,5.4-0.5c0.3,0,0.8,0,1.3,0.1c0.5,0,1,0.1,1.5,0.2
			c0.5,0.1,1,0.2,1.5,0.3s0.9,0.2,1.3,0.4L583.1,384.7z"/>
		<path class="st0" d="M586.6,390.7c0-2.1,0.3-3.9,1-5.4s1.5-2.8,2.5-3.9s2.2-1.8,3.6-2.3s2.7-0.8,4.1-0.8c3.3,0,5.9,1,7.8,3
			c1.9,2,2.9,5,2.9,8.9c0,0.4,0,0.8,0,1.3c0,0.5-0.1,0.9-0.1,1.2h-14.9c0.2,1.4,0.8,2.4,1.9,3.2s2.6,1.2,4.5,1.2
			c1.2,0,2.4-0.1,3.6-0.3c1.2-0.2,2.1-0.5,2.8-0.8l0.9,5.4c-0.3,0.2-0.8,0.4-1.4,0.5s-1.2,0.3-2,0.5s-1.5,0.2-2.3,0.3
			c-0.8,0.1-1.7,0.1-2.5,0.1c-2.1,0-3.9-0.3-5.5-0.9s-2.8-1.5-3.8-2.5c-1-1.1-1.8-2.4-2.2-3.8C586.9,394,586.6,392.4,586.6,390.7z
			 M602.1,388.2c0-0.6-0.1-1.1-0.3-1.6c-0.2-0.5-0.4-1-0.8-1.4s-0.8-0.8-1.3-1c-0.5-0.3-1.2-0.4-1.9-0.4c-0.7,0-1.4,0.1-1.9,0.4
			s-1,0.6-1.3,1c-0.3,0.4-0.6,0.9-0.8,1.4s-0.3,1.1-0.4,1.7H602.1z"/>
		<path class="st0" d="M621.9,378.3c2,0,3.6,0.2,4.9,0.7c1.3,0.4,2.3,1.1,3.1,1.9c0.8,0.8,1.3,1.8,1.7,3c0.3,1.2,0.5,2.5,0.5,3.9
			v13.7c-0.9,0.2-2.2,0.5-3.9,0.7s-3.7,0.4-6.1,0.4c-1.5,0-2.9-0.1-4.1-0.4c-1.2-0.3-2.3-0.7-3.2-1.3c-0.9-0.6-1.6-1.4-2-2.4
			c-0.5-1-0.7-2.2-0.7-3.6c0-1.4,0.3-2.5,0.8-3.5c0.5-0.9,1.3-1.7,2.2-2.2c0.9-0.6,2-1,3.1-1.2s2.4-0.4,3.7-0.4c0.8,0,1.6,0,2.3,0.1
			c0.7,0.1,1.2,0.2,1.6,0.3v-0.6c0-1.1-0.3-2-1-2.7c-0.7-0.7-1.9-1-3.5-1c-1.1,0-2.2,0.1-3.3,0.2s-2,0.4-2.8,0.7l-0.8-5.3
			c0.4-0.1,0.9-0.2,1.4-0.4c0.6-0.1,1.2-0.2,1.9-0.4s1.4-0.2,2.1-0.3C620.4,378.3,621.1,378.3,621.9,378.3z M622.4,397.5
			c0.7,0,1.3,0,1.9,0c0.6,0,1.1-0.1,1.4-0.1v-5c-0.3-0.1-0.7-0.1-1.2-0.2s-1-0.1-1.5-0.1c-0.6,0-1.2,0-1.8,0.1
			c-0.5,0.1-1,0.2-1.4,0.4c-0.4,0.2-0.7,0.5-1,0.8c-0.2,0.4-0.3,0.8-0.3,1.3c0,1,0.3,1.8,1,2.1C620.3,397.4,621.2,397.5,622.4,397.5
			z"/>
		<path class="st0" d="M637.8,373.1l6.6-1.1v6.9h7.9v5.5h-7.9v8.2c0,1.4,0.2,2.5,0.7,3.3s1.5,1.2,2.9,1.2c0.7,0,1.4-0.1,2.2-0.2
			s1.4-0.3,2-0.5l0.9,5.1c-0.8,0.3-1.7,0.6-2.7,0.8s-2.2,0.4-3.6,0.4c-1.8,0-3.3-0.2-4.5-0.7s-2.1-1.2-2.8-2s-1.2-1.9-1.5-3.2
			s-0.4-2.6-0.4-4.1L637.8,373.1L637.8,373.1z"/>
		<path class="st0" d="M664.8,372.2c0,1.2-0.4,2.2-1.2,2.9c-0.8,0.7-1.7,1-2.8,1s-2-0.4-2.8-1s-1.2-1.6-1.2-2.9s0.4-2.2,1.2-2.9
			c0.8-0.7,1.7-1,2.8-1s2,0.4,2.8,1C664.4,370,664.8,371,664.8,372.2z M664.2,402.1h-6.6v-23.2h6.6V402.1z"/>
		<path class="st0" d="M676.8,402.1c-1.5-3-3-6.4-4.6-10.3c-1.5-4-3-8.2-4.4-12.9h7c0.3,1.1,0.6,2.4,1,3.7c0.4,1.3,0.8,2.7,1.2,4.1
			s0.9,2.7,1.3,4s0.8,2.5,1.3,3.5c0.4-1.1,0.8-2.2,1.2-3.5s0.9-2.6,1.3-4s0.8-2.7,1.2-4.1c0.4-1.3,0.8-2.6,1-3.7h6.8
			c-1.4,4.7-2.9,9-4.4,12.9s-3.1,7.4-4.6,10.3H676.8z"/>
		<path class="st0" d="M693.6,390.7c0-2.1,0.3-3.9,1-5.4s1.5-2.8,2.5-3.9s2.2-1.8,3.6-2.3s2.7-0.8,4.1-0.8c3.3,0,5.9,1,7.8,3
			c1.9,2,2.9,5,2.9,8.9c0,0.4,0,0.8,0,1.3c0,0.5-0.1,0.9-0.1,1.2h-14.9c0.2,1.4,0.8,2.4,1.9,3.2s2.6,1.2,4.5,1.2
			c1.2,0,2.4-0.1,3.6-0.3c1.2-0.2,2.1-0.5,2.8-0.8l0.9,5.4c-0.3,0.2-0.8,0.4-1.4,0.5s-1.2,0.3-2,0.5s-1.5,0.2-2.3,0.3
			c-0.8,0.1-1.7,0.1-2.5,0.1c-2.1,0-3.9-0.3-5.5-0.9s-2.8-1.5-3.8-2.5c-1-1.1-1.8-2.4-2.2-3.8C693.8,394,693.6,392.4,693.6,390.7z
			 M709.1,388.2c0-0.6-0.1-1.1-0.3-1.6c-0.2-0.5-0.4-1-0.8-1.4s-0.8-0.8-1.3-1c-0.5-0.3-1.2-0.4-1.9-0.4c-0.7,0-1.4,0.1-1.9,0.4
			s-1,0.6-1.3,1c-0.3,0.4-0.6,0.9-0.8,1.4s-0.3,1.1-0.4,1.7H709.1z"/>
		<path class="st0" d="M727.2,397.4c1.2,0,2.1-0.1,2.6-0.4c0.5-0.2,0.8-0.7,0.8-1.4c0-0.5-0.3-1-1-1.4c-0.7-0.4-1.6-0.9-3-1.4
			c-1-0.4-2-0.8-2.8-1.2s-1.5-0.9-2.1-1.5c-0.6-0.6-1-1.3-1.4-2.1c-0.3-0.8-0.5-1.8-0.5-2.9c0-2.2,0.8-3.9,2.4-5.2
			c1.6-1.3,3.8-1.9,6.7-1.9c1.4,0,2.8,0.1,4.1,0.4s2.3,0.5,3.1,0.8l-1.2,5.1c-0.8-0.3-1.6-0.5-2.5-0.7s-1.9-0.3-3-0.3
			c-2.1,0-3.1,0.6-3.1,1.7c0,0.3,0,0.5,0.1,0.7s0.3,0.4,0.5,0.6s0.6,0.4,1.1,0.6s1,0.5,1.8,0.7c1.4,0.5,2.6,1.1,3.6,1.6
			s1.7,1.1,2.2,1.7s0.9,1.3,1.2,2c0.2,0.7,0.3,1.6,0.3,2.6c0,2.3-0.9,4-2.6,5.2s-4.2,1.8-7.3,1.8c-2.1,0-3.8-0.2-5.2-0.5
			s-2.3-0.6-2.8-0.9l1.1-5.4c1.1,0.4,2.3,0.8,3.5,1C724.9,397.3,726,397.4,727.2,397.4z"/>
	</g>
	<circle class="st0" cx="364.5" cy="242.6" r="32.7"/>
</g>
</svg>
