<?xml version="1.0" standalone="no"?>
<!DOCTYPE svg PUBLIC "-//W3C//DTD SVG 20010904//EN"
 "http://www.w3.org/TR/2001/REC-SVG-20010904/DTD/svg10.dtd">
<svg version="1.0" xmlns="http://www.w3.org/2000/svg"
 width="3508.000000pt" height="2481.000000pt" viewBox="0 0 3508.000000 2481.000000"
 preserveAspectRatio="xMidYMid meet">

<g transform="translate(0.000000,2481.000000) scale(0.100000,-0.100000)"
fill="#000000" stroke="none">
<path d="M27460 9442 c-52 -26 -80 -74 -80 -140 0 -91 49 -146 142 -158 51 -6
120 24 151 67 50 69 23 190 -52 228 -49 26 -114 27 -161 3z"/>
<path d="M23012 9349 c-254 -39 -437 -205 -503 -456 -26 -99 -29 -292 -5 -403
36 -171 144 -322 277 -387 111 -54 177 -67 344 -67 156 0 222 11 336 53 89 35
87 25 44 147 -21 60 -39 110 -40 112 -1 1 -22 -6 -46 -17 -124 -55 -335 -66
-433 -23 -106 48 -172 134 -196 260 -18 92 -8 252 20 327 31 81 114 164 190
191 90 31 231 25 349 -15 52 -17 95 -30 96 -29 6 6 75 206 75 215 0 16 -106
59 -188 77 -93 21 -238 28 -320 15z"/>
<path d="M26685 9280 c-55 -11 -101 -19 -103 -19 -2 -1 -1 -218 0 -483 4 -560
3 -553 91 -643 73 -74 138 -97 277 -98 104 -1 243 23 256 45 3 5 -2 54 -12
109 -14 82 -20 99 -33 95 -154 -47 -256 -31 -291 46 -17 38 -20 67 -20 256 l0
212 165 0 165 0 0 110 0 110 -165 0 -165 0 0 140 0 140 -32 -1 c-18 -1 -78 -9
-133 -19z"/>
<path d="M24813 9035 c-171 -37 -302 -167 -348 -342 -18 -68 -20 -230 -4 -305
58 -269 305 -400 649 -344 106 17 167 34 175 46 4 6 -1 57 -11 114 l-17 104
-38 -13 c-62 -22 -197 -38 -264 -32 -124 12 -199 65 -229 165 l-7 22 315 0
316 0 0 93 c0 161 -39 288 -114 374 -47 53 -158 109 -246 123 -81 12 -99 12
-177 -5z m203 -243 c35 -24 62 -74 71 -128 l6 -34 -180 0 c-99 0 -182 3 -186
6 -9 9 18 89 41 122 33 46 77 63 152 60 48 -3 74 -9 96 -26z"/>
<path d="M25840 9044 c-76 -9 -177 -25 -211 -34 l-35 -10 15 -99 c9 -55 19
-102 22 -105 3 -3 37 1 75 9 88 19 234 19 277 1 52 -21 87 -70 87 -119 l0 -42
-147 0 c-169 0 -229 -13 -309 -68 -35 -24 -58 -50 -79 -92 -26 -52 -30 -68
-29 -141 0 -71 4 -91 30 -140 35 -70 88 -113 170 -140 83 -27 384 -27 527 -1
l97 19 0 326 c0 234 -4 343 -13 383 -29 120 -95 192 -210 227 -63 20 -203 33
-267 26z m228 -685 l3 -106 -38 -7 c-185 -30 -307 50 -249 163 25 47 68 61
181 58 l100 -2 3 -106z"/>
<path d="M29305 9043 c-120 -16 -246 -93 -310 -188 -63 -96 -88 -181 -89 -310
-1 -124 12 -192 56 -279 56 -111 168 -190 313 -221 89 -19 175 -19 295 0 113
17 175 37 175 56 0 47 -30 199 -39 199 -6 0 -36 -7 -66 -15 -82 -22 -206 -29
-271 -16 -79 17 -145 61 -169 114 -11 23 -20 48 -20 55 0 9 68 12 309 12 l309
0 7 41 c9 53 -2 179 -21 249 -49 171 -165 274 -339 300 -71 10 -86 10 -140 3z
m155 -245 c18 -13 42 -35 52 -49 20 -27 40 -97 32 -111 -3 -4 -86 -8 -185 -8
l-181 0 7 33 c11 51 47 109 84 134 48 32 144 32 191 1z"/>
<path d="M30283 9040 c-128 -17 -242 -95 -274 -186 -7 -21 -13 -71 -13 -110 0
-56 5 -81 27 -127 36 -73 90 -112 237 -172 138 -56 180 -85 180 -124 0 -47
-31 -65 -120 -70 -80 -3 -214 18 -276 44 l-32 13 -21 -99 c-11 -55 -21 -106
-21 -113 0 -26 195 -66 322 -66 293 0 447 131 410 348 -20 120 -77 172 -271
254 -64 26 -127 56 -141 66 -28 21 -37 61 -20 91 23 44 140 53 265 21 43 -11
79 -20 81 -20 3 0 44 179 44 195 0 36 -248 72 -377 55z"/>
<path d="M23955 9030 c-51 -8 -153 -32 -212 -51 l-33 -11 0 -454 0 -454 135 0
135 0 0 364 c0 275 3 367 12 372 25 15 173 16 236 1 46 -11 64 -12 67 -3 10
33 44 210 41 213 -2 3 -39 11 -82 18 -84 15 -217 17 -299 5z"/>
<path d="M27400 8540 l0 -480 135 0 135 0 0 480 0 480 -135 0 -135 0 0 -480z"/>
<path d="M27830 9010 c0 -5 29 -97 64 -203 71 -214 155 -429 242 -619 l58
-128 116 0 117 0 51 108 c96 203 207 491 285 740 l35 113 -140 -3 -140 -3 -43
-150 c-64 -218 -148 -465 -160 -466 -10 -1 -108 288 -168 496 l-35 120 -141 3
c-92 2 -141 -1 -141 -8z"/>
</g>
</svg>
